<svg xmlns="http://www.w3.org/2000/svg" version="1.1" xmlns:xlink="http://www.w3.org/1999/xlink" xmlns:svgjs="http://svgjs.dev/svgjs" width="2000" height="1652" viewBox="0 0 2000 1652"><g transform="matrix(1,0,0,1,-1.278306974283396,0.6700609780996274)"><svg viewBox="0 0 299 247" data-background-color="#ffffff" preserveAspectRatio="xMidYMid meet" height="1652" width="2000" xmlns="http://www.w3.org/2000/svg" xmlns:xlink="http://www.w3.org/1999/xlink"><g id="tight-bounds" transform="matrix(1,0,0,1,0.19110689265536962,-0.09997365579206985)"><svg viewBox="0 0 298.61778621468926 247.2" height="247.2" width="298.61778621468926"><g><svg viewBox="0 0 298.61778621468926 247.2" height="247.2" width="298.61778621468926"><g><svg viewBox="0 0 298.61778621468926 247.2" height="247.2" width="298.61778621468926"><g id="textblocktransform"><svg viewBox="0 0 298.61778621468926 247.2" height="247.2" width="298.61778621468926" id="textblock"><g><svg viewBox="0 0 298.61778621468926 247.2" height="247.2" width="298.61778621468926"><path d="M297.919 53.02C296.515 27.36 292.514 20.227 292.514 20.227 280.23-6.202 264.9-0.506 251.128 3.292 226.813 3.446 202.596 9.091 178.337 12.119 127.419 12.581 76.066 4.986 25.4 23.717 20.641 29.464-4.937 24.846 0.847 56.304 2.363 69.39 7.894 83.913 7.725 95.922 8.484 98.026 9.536 93.202 9.986 96.23 11.558 104.39 14.127 100.541 16.233 105.365 13.299 118.246 15.405 128.971 17.412 140.21 13.874 143.135 9.34 141.749 7.304 151.449 7.094 158.479 5.957 157.145 4.707 156.837 3.795 156.632 1.956 157.402 2.264 159.608 3.317 167.152-1.203 171.514 1.633 178.904-0.319 186.91 2.98 193.838 2.531 202.511 2.475 204.255 2.784 205.744 3.275 206.154 5.451 208.361 2.278 212.672 2.615 217.342 24.937 249.262 49.154 227.195 72.023 241.872 77.961 231.608 73.497 245.516 75.869 243.36 77.722 240.846 79.07 251.263 81.162 245.362 81.485 243.668 80.993 239.665 82.144 240.435 82.748 240.846 83.282 240.743 83.366 238.382 83.492 234.841 82.383 237.048 82.088 235.201 85.275 225.861 84.489 248.081 87.479 247.158 87.339 244.438 86.468 240.538 88.251 241.051 90.02 237.151 90.076 233.918 91.649 242.693 91.705 244.592 91.986 245.926 92.435 246.85 97.348 237.305 102.234 250.237 107.386 245.926 110.545 241.205 113.577 248.492 116.778 246.696 117.901 245.259 119.038 242.693 120.119 247.004 133.357 247.928 147.466 244.079 160.017 247.158 193.555 241.41 229.396 249.518 264.759 241.923 273.098 238.998 281.76 234.841 289.889 231.506 289.889 231.506 296.473 222.371 296.473 181.316S297.877 145.393 298.087 112.703C298.298 80.013 299.28 78.679 297.877 53.02Z" opacity="1" fill="#4d59d9" data-fill-palette-color="tertiary"></path><g transform="matrix(1,0,0,1,55.76832,26.230666666666668)"><svg width="187.08114621468926" viewBox="3.25 -35.57 34.59 36.01" height="194.73866666666666" data-palette-color="#ffffff"><path d="M11.4-32.54L11.4-32.54 11.4-2.15Q12.72-1.98 13.94-1.89 15.16-1.81 16.33-1.81L16.33-1.81Q20.46-1.81 23.73-2.87 27-3.93 29.27-6.09 31.54-8.25 32.75-11.49 33.96-14.72 33.96-19.09L33.96-19.09Q33.94-21.97 33.23-24.19 32.52-26.42 31.25-28.06 29.98-29.71 28.26-30.82 26.54-31.93 24.52-32.63 22.51-33.33 20.28-33.62 18.04-33.91 15.75-33.91L15.75-33.91Q14.65-33.91 13.55-33.84 12.45-33.76 11.3-33.64L11.3-33.64Q11.35-33.3 11.38-33.02 11.4-32.74 11.4-32.54ZM3.34-33.74L3.25-34.45Q5.37-34.72 7.06-34.92 8.74-35.13 10.33-35.28 11.91-35.42 13.6-35.5 15.28-35.57 17.41-35.57L17.41-35.57Q19.24-35.57 20.75-35.47 22.27-35.38 23.62-35.14 24.98-34.91 26.28-34.53 27.59-34.16 29.03-33.62L29.03-33.62Q30.96-32.89 32.58-31.65 34.2-30.42 35.38-28.64 36.55-26.86 37.19-24.49 37.84-22.12 37.84-19.09L37.84-19.09Q37.82-15.5 36.91-12.7 36.01-9.89 34.4-7.76 32.79-5.64 30.58-4.15 28.37-2.66 25.78-1.73 23.19-0.81 20.31-0.39 17.43 0.02 14.48 0.02L14.48 0.02Q14.23 0.02 12.88 0.04 11.52 0.05 9.99 0.17 8.45 0.29 7.3 0.44L7.3 0.44 7.15 0.2Q7.64-0.51 7.64-2.39L7.64-2.39 7.64-28.1Q7.64-29.71 7.5-30.8 7.35-31.88 6.96-32.54 6.57-33.2 5.86-33.48 5.15-33.76 4.52-33.76 3.88-33.76 3.71-33.76 3.54-33.76 3.34-33.74L3.34-33.74Z" opacity="1" transform="matrix(1,0,0,1,0,0)" fill="#ffffff" class="wordmark-text-0" data-fill-palette-color="quaternary" id="text-0"></path></svg></g></svg></g></svg></g></svg></g><g></g></svg></g><defs></defs></svg><rect width="298.61778621468926" height="247.2" fill="none" stroke="none" visibility="hidden"></rect></g></svg></g></svg>